<mxfile host="app.diagrams.net" modified="2022-06-16T05:58:25.190Z" agent="5.0 (Macintosh; Intel Mac OS X 10_15_7) AppleWebKit/537.36 (KHTML, like Gecko) Chrome/101.0.4951.64 Safari/537.36" etag="e1YhoBLPfGKYF2-uyE9s" version="20.0.1" type="github">
  <diagram id="QWaLk7IN20cdrfLnV8OY" name="Page-1">
    <mxGraphModel dx="932" dy="1254" grid="1" gridSize="10" guides="1" tooltips="1" connect="1" arrows="1" fold="1" page="1" pageScale="1" pageWidth="900" pageHeight="1600" background="#FFFFFF" math="0" shadow="0">
      <root>
        <mxCell id="0" />
        <mxCell id="1" parent="0" />
        <mxCell id="qiCiA2myx4UJtC2wgqbX-6" value="" style="rounded=0;whiteSpace=wrap;html=1;fontSize=24;fillColor=#FFFFFF;" parent="1" vertex="1">
          <mxGeometry width="900" height="240" as="geometry" />
        </mxCell>
        <mxCell id="qiCiA2myx4UJtC2wgqbX-1" value="&lt;font style=&quot;font-size: 24px;&quot;&gt;Cafe Hoppers&lt;br&gt;logo&lt;/font&gt;" style="rounded=0;whiteSpace=wrap;html=1;fillColor=#E6E6E6;" parent="1" vertex="1">
          <mxGeometry x="30" y="70" width="210" height="100" as="geometry" />
        </mxCell>
        <mxCell id="qiCiA2myx4UJtC2wgqbX-7" value="menu&lt;br&gt;icon" style="rounded=0;whiteSpace=wrap;html=1;fontSize=24;fillColor=#E6E6E6;" parent="1" vertex="1">
          <mxGeometry x="750" y="80" width="120" height="100" as="geometry" />
        </mxCell>
        <mxCell id="qiCiA2myx4UJtC2wgqbX-10" value="footer content" style="rounded=0;whiteSpace=wrap;html=1;fontSize=24;fillColor=#FFFFFF;" parent="1" vertex="1">
          <mxGeometry y="1380" width="900" height="220" as="geometry" />
        </mxCell>
        <mxCell id="alxngudCPENM9emR9nhb-4" value="    all cafe reviews" style="swimlane;startSize=200;fontSize=30;align=left;" parent="1" vertex="1">
          <mxGeometry y="240" width="900" height="1140" as="geometry" />
        </mxCell>
        <mxCell id="alxngudCPENM9emR9nhb-20" value="filter &amp;amp; sort" style="rounded=1;whiteSpace=wrap;html=1;fontSize=30;" parent="alxngudCPENM9emR9nhb-4" vertex="1">
          <mxGeometry x="40" y="230" width="240" height="80" as="geometry" />
        </mxCell>
        <mxCell id="alxngudCPENM9emR9nhb-27" value="" style="rounded=1;whiteSpace=wrap;html=1;fontSize=30;fillColor=#E6E6E6;" parent="alxngudCPENM9emR9nhb-4" vertex="1">
          <mxGeometry x="40" y="340" width="820" height="380" as="geometry" />
        </mxCell>
        <mxCell id="alxngudCPENM9emR9nhb-28" value="" style="rounded=1;whiteSpace=wrap;html=1;fontSize=30;fillColor=#E6E6E6;" parent="alxngudCPENM9emR9nhb-4" vertex="1">
          <mxGeometry x="40" y="740" width="820" height="380" as="geometry" />
        </mxCell>
        <mxCell id="alxngudCPENM9emR9nhb-29" value="" style="line;strokeWidth=2;direction=south;html=1;fontSize=30;" parent="alxngudCPENM9emR9nhb-4" vertex="1">
          <mxGeometry x="520" y="340" width="10" height="380" as="geometry" />
        </mxCell>
        <mxCell id="alxngudCPENM9emR9nhb-30" value="" style="line;strokeWidth=2;direction=south;html=1;fontSize=30;" parent="alxngudCPENM9emR9nhb-4" vertex="1">
          <mxGeometry x="520" y="740" width="10" height="380" as="geometry" />
        </mxCell>
        <mxCell id="alxngudCPENM9emR9nhb-31" value="photo of cafe" style="text;html=1;strokeColor=none;fillColor=none;align=center;verticalAlign=middle;whiteSpace=wrap;rounded=0;fontSize=30;" parent="alxngudCPENM9emR9nhb-4" vertex="1">
          <mxGeometry x="180" y="490" width="200" height="30" as="geometry" />
        </mxCell>
        <mxCell id="alxngudCPENM9emR9nhb-32" value="photo of cafe" style="text;html=1;strokeColor=none;fillColor=none;align=center;verticalAlign=middle;whiteSpace=wrap;rounded=0;fontSize=30;" parent="alxngudCPENM9emR9nhb-4" vertex="1">
          <mxGeometry x="130" y="900" width="300" height="30" as="geometry" />
        </mxCell>
        <mxCell id="alxngudCPENM9emR9nhb-33" value="&lt;div style=&quot;text-align: left; font-size: 36px;&quot;&gt;&lt;span style=&quot;background-color: initial;&quot;&gt;&lt;font style=&quot;font-size: 36px;&quot;&gt;name of cafe&lt;/font&gt;&lt;/span&gt;&lt;/div&gt;&lt;div style=&quot;text-align: left; font-size: 36px;&quot;&gt;&lt;span style=&quot;background-color: initial;&quot;&gt;&lt;font style=&quot;font-size: 36px;&quot;&gt;city, state&lt;/font&gt;&lt;/span&gt;&lt;/div&gt;" style="text;strokeColor=none;fillColor=none;html=1;fontSize=24;fontStyle=1;verticalAlign=middle;align=center;" parent="alxngudCPENM9emR9nhb-4" vertex="1">
          <mxGeometry x="530" y="370" width="270" height="80" as="geometry" />
        </mxCell>
        <mxCell id="alxngudCPENM9emR9nhb-34" value="&lt;div style=&quot;text-align: left; font-size: 36px;&quot;&gt;&lt;span style=&quot;background-color: initial;&quot;&gt;&lt;font style=&quot;font-size: 36px;&quot;&gt;name of cafe&lt;/font&gt;&lt;/span&gt;&lt;/div&gt;&lt;div style=&quot;text-align: left; font-size: 36px;&quot;&gt;&lt;span style=&quot;background-color: initial;&quot;&gt;&lt;font style=&quot;font-size: 36px;&quot;&gt;city, state&lt;/font&gt;&lt;/span&gt;&lt;/div&gt;" style="text;strokeColor=none;fillColor=none;html=1;fontSize=24;fontStyle=1;verticalAlign=middle;align=center;" parent="alxngudCPENM9emR9nhb-4" vertex="1">
          <mxGeometry x="530" y="770" width="270" height="80" as="geometry" />
        </mxCell>
        <mxCell id="alxngudCPENM9emR9nhb-37" value="&lt;span style=&quot;&quot;&gt;&lt;font style=&quot;font-size: 18px; line-height: 0.9;&quot;&gt;Lorem ipsum dolor sit amet, consectetur adipiscing elit. Nullam a porttitor magna, id bibendum sem. Donec posuere diam...&lt;br&gt;&lt;u&gt;Read More&lt;/u&gt;&lt;br&gt;&lt;/font&gt;&lt;/span&gt;" style="text;html=1;strokeColor=none;fillColor=none;align=left;verticalAlign=middle;whiteSpace=wrap;rounded=0;fontSize=36;" parent="alxngudCPENM9emR9nhb-4" vertex="1">
          <mxGeometry x="550" y="860" width="280" height="230" as="geometry" />
        </mxCell>
        <mxCell id="alxngudCPENM9emR9nhb-38" value="&lt;span style=&quot;&quot;&gt;&lt;font style=&quot;font-size: 18px; line-height: 0.9;&quot;&gt;Lorem ipsum dolor sit amet, consectetur adipiscing elit. Nullam a porttitor magna, id bibendum sem. Donec posuere diam...&lt;br&gt;&lt;u&gt;Read More&lt;/u&gt;&lt;br&gt;&lt;/font&gt;&lt;/span&gt;" style="text;html=1;strokeColor=none;fillColor=none;align=left;verticalAlign=middle;whiteSpace=wrap;rounded=0;fontSize=36;" parent="alxngudCPENM9emR9nhb-4" vertex="1">
          <mxGeometry x="550" y="460" width="280" height="230" as="geometry" />
        </mxCell>
        <mxCell id="ZUUjcXUc1sz_gctlkANr-3" value="" style="shape=umlDestroy;whiteSpace=wrap;html=1;strokeWidth=3;labelBackgroundColor=none;fontFamily=Helvetica;fontSize=30;fillColor=#E6E6E6;" vertex="1" parent="alxngudCPENM9emR9nhb-4">
          <mxGeometry x="700" y="310" width="30" height="30" as="geometry" />
        </mxCell>
      </root>
    </mxGraphModel>
  </diagram>
</mxfile>
